<svg xmlns="http://www.w3.org/2000/svg" xmlns:xlink="http://www.w3.org/1999/xlink" width="500" zoomAndPan="magnify" viewBox="0 0 375 374.999991" height="500" preserveAspectRatio="xMidYMid meet" version="1.0"><defs><g/><clipPath id="29351a5ee3"><path d="M 215 111.714844 L 244 111.714844 L 244 140 L 215 140 Z M 215 111.714844 " clip-rule="nonzero"/></clipPath><clipPath id="872492feac"><path d="M 90 235 L 119 235 L 119 263.382812 L 90 263.382812 Z M 90 235 " clip-rule="nonzero"/></clipPath><clipPath id="ea0339ddbf"><path d="M 349.386719 237.960938 L 359 237.960938 L 359 249 L 349.386719 249 Z M 349.386719 237.960938 " clip-rule="nonzero"/></clipPath><clipPath id="ed49a7e502"><path d="M 357 237.960938 L 367 237.960938 L 367 249 L 357 249 Z M 357 237.960938 " clip-rule="nonzero"/></clipPath><clipPath id="5c6a3a188f"><path d="M 365 237.960938 L 374.886719 237.960938 L 374.886719 249 L 365 249 Z M 365 237.960938 " clip-rule="nonzero"/></clipPath></defs><path fill="#ffffff" d="M 112.226562 251.511719 C 101.578125 251.511719 91.488281 250.730469 82.226562 249.167969 C 55.34375 244.609375 38.566406 233.886719 34.972656 218.980469 C 31.390625 204.0625 41.449219 186.882812 63.3125 170.589844 C 84.957031 154.46875 115.636719 141.074219 149.707031 132.875 C 183.78125 124.671875 217.199219 122.640625 243.800781 127.148438 C 270.6875 131.707031 287.460938 142.433594 291.058594 157.339844 C 294.640625 172.253906 284.582031 189.4375 262.71875 205.730469 C 241.074219 221.851562 210.394531 235.246094 176.324219 243.445312 C 154.113281 248.785156 132.171875 251.511719 112.226562 251.511719 Z M 213.804688 126.726562 C 194.015625 126.726562 172.238281 129.433594 150.160156 134.742188 C 116.328125 142.886719 85.898438 156.164062 64.460938 172.128906 C 43.25 187.921875 33.441406 204.402344 36.84375 218.515625 C 43.933594 247.964844 106.296875 258.304688 175.871094 241.566406 C 209.703125 233.421875 240.132812 220.144531 261.570312 204.179688 C 282.78125 188.375 292.589844 171.910156 289.1875 157.792969 C 285.785156 143.675781 269.558594 133.460938 243.484375 129.046875 C 234.332031 127.496094 224.347656 126.726562 213.804688 126.726562 Z M 213.804688 126.726562 " fill-opacity="1" fill-rule="nonzero"/><g clip-path="url(#29351a5ee3)"><path fill="#ffffff" d="M 229.628906 121.203125 L 232.980469 111.703125 L 231.546875 121.675781 L 238.9375 114.824219 L 233.019531 122.988281 L 242.753906 120.355469 L 233.722656 124.835938 L 243.5625 127.023438 L 233.484375 126.792969 L 241.183594 133.308594 L 232.363281 128.421875 L 236.152344 137.757812 L 230.609375 129.335938 L 229.628906 139.367188 L 228.636719 129.335938 L 223.09375 137.757812 L 226.882812 128.421875 L 218.066406 133.308594 L 225.765625 126.792969 L 215.683594 127.023438 L 225.523438 124.835938 L 216.496094 120.355469 L 226.226562 122.988281 L 220.308594 114.824219 L 227.699219 121.675781 L 226.265625 111.703125 Z M 229.628906 121.203125 " fill-opacity="1" fill-rule="nonzero"/></g><g clip-path="url(#872492feac)"><path fill="#ffffff" d="M 104.417969 245.09375 L 107.773438 235.59375 L 106.335938 245.566406 L 113.726562 238.714844 L 107.8125 246.875 L 117.542969 244.246094 L 108.515625 248.726562 L 118.351562 250.914062 L 108.273438 250.683594 L 115.972656 257.195312 L 107.15625 252.308594 L 110.941406 261.65625 L 105.402344 253.226562 L 104.417969 263.257812 L 103.425781 253.226562 L 97.894531 261.65625 L 101.683594 252.308594 L 92.867188 257.195312 L 100.554688 250.683594 L 90.476562 250.914062 L 100.324219 248.726562 L 91.285156 244.246094 L 101.019531 246.875 L 95.113281 238.714844 L 102.503906 245.566406 L 101.058594 235.59375 Z M 104.417969 245.09375 " fill-opacity="1" fill-rule="nonzero"/></g><g fill="#ffffff" fill-opacity="1"><g transform="translate(77.511408, 179.103234)"><g><path d="M 0.3125 -1.1875 C 0.3125 -1.6875 0.46875 -2.0625 0.78125 -2.3125 C 1.09375 -2.5625 1.519531 -2.894531 2.0625 -3.3125 C 2.601562 -3.726562 3.207031 -4.394531 3.875 -5.3125 C 4.25 -5.851562 4.71875 -6.875 5.28125 -8.375 C 5.84375 -9.882812 6.457031 -11.640625 7.125 -13.640625 C 7.789062 -15.640625 8.46875 -17.703125 9.15625 -19.828125 C 9.84375 -21.953125 10.484375 -23.910156 11.078125 -25.703125 C 11.410156 -26.660156 11.535156 -27.359375 11.453125 -27.796875 C 11.367188 -28.234375 11.191406 -28.566406 10.921875 -28.796875 C 10.648438 -29.023438 10.394531 -29.234375 10.15625 -29.421875 C 9.925781 -29.609375 9.8125 -29.910156 9.8125 -30.328125 C 9.8125 -30.910156 10.070312 -31.273438 10.59375 -31.421875 C 11.125 -31.578125 11.722656 -31.65625 12.390625 -31.65625 C 13.179688 -31.65625 13.785156 -31.59375 14.203125 -31.46875 C 14.617188 -31.34375 15.367188 -31.28125 16.453125 -31.28125 C 17.660156 -31.28125 18.597656 -31.34375 19.265625 -31.46875 C 19.929688 -31.59375 20.578125 -31.65625 21.203125 -31.65625 C 21.660156 -31.65625 22.046875 -31.59375 22.359375 -31.46875 C 22.671875 -31.34375 22.972656 -30.921875 23.265625 -30.203125 C 23.640625 -29.328125 24.117188 -27.960938 24.703125 -26.109375 C 25.285156 -24.253906 25.921875 -22.203125 26.609375 -19.953125 C 27.296875 -17.703125 27.992188 -15.476562 28.703125 -13.28125 C 29.410156 -11.09375 30.078125 -9.1875 30.703125 -7.5625 C 31.335938 -5.9375 31.863281 -4.851562 32.28125 -4.3125 C 32.988281 -3.4375 33.550781 -2.851562 33.96875 -2.5625 C 34.382812 -2.269531 34.59375 -1.8125 34.59375 -1.1875 C 34.59375 -0.5625 34.382812 -0.144531 33.96875 0.0625 C 33.550781 0.269531 32.988281 0.375 32.28125 0.375 C 31.476562 0.375 30.523438 0.3125 29.421875 0.1875 C 28.316406 0.0625 27.117188 0 25.828125 0 C 25.203125 0 24.441406 0.0625 23.546875 0.1875 C 22.648438 0.3125 21.785156 0.375 20.953125 0.375 C 20.203125 0.375 19.566406 0.269531 19.046875 0.0625 C 18.523438 -0.144531 18.265625 -0.5625 18.265625 -1.1875 C 18.265625 -1.8125 18.398438 -2.257812 18.671875 -2.53125 C 18.941406 -2.800781 19.203125 -3.1875 19.453125 -3.6875 C 19.703125 -4.1875 19.828125 -5.039062 19.828125 -6.25 C 19.828125 -7.207031 19.597656 -7.957031 19.140625 -8.5 C 18.679688 -9.039062 18.097656 -9.3125 17.390625 -9.3125 L 11.640625 -9.3125 C 10.929688 -9.3125 10.34375 -9.039062 9.875 -8.5 C 9.414062 -7.957031 9.1875 -7.207031 9.1875 -6.25 C 9.1875 -5.039062 9.351562 -4.164062 9.6875 -3.625 C 10.019531 -3.082031 10.351562 -2.664062 10.6875 -2.375 C 11.03125 -2.082031 11.203125 -1.6875 11.203125 -1.1875 C 11.203125 -0.601562 10.96875 -0.195312 10.5 0.03125 C 10.039062 0.257812 9.519531 0.375 8.9375 0.375 C 8.226562 0.375 7.675781 0.3125 7.28125 0.1875 C 6.882812 0.0625 6.375 0 5.75 0 C 5.125 0 4.613281 0.0625 4.21875 0.1875 C 3.820312 0.3125 3.269531 0.375 2.5625 0.375 C 1.976562 0.375 1.457031 0.257812 1 0.03125 C 0.539062 -0.195312 0.3125 -0.601562 0.3125 -1.1875 Z M 10.953125 -13.828125 C 10.617188 -12.867188 10.929688 -12.390625 11.890625 -12.390625 L 16.953125 -12.390625 C 17.910156 -12.390625 18.222656 -12.867188 17.890625 -13.828125 C 17.347656 -15.410156 16.828125 -17.066406 16.328125 -18.796875 C 15.828125 -20.523438 15.410156 -21.972656 15.078125 -23.140625 C 14.910156 -23.679688 14.722656 -23.953125 14.515625 -23.953125 C 14.347656 -23.953125 14.160156 -23.703125 13.953125 -23.203125 C 13.535156 -22.035156 13.078125 -20.578125 12.578125 -18.828125 C 12.078125 -17.078125 11.535156 -15.410156 10.953125 -13.828125 Z M 10.953125 -13.828125 "/></g></g></g><g fill="#ffffff" fill-opacity="1"><g transform="translate(112.408756, 179.103234)"><g><path d="M 0.5625 -30.078125 C 0.5625 -30.703125 0.800781 -31.117188 1.28125 -31.328125 C 1.757812 -31.546875 2.351562 -31.65625 3.0625 -31.65625 C 3.8125 -31.65625 4.613281 -31.59375 5.46875 -31.46875 C 6.320312 -31.34375 7.0625 -31.28125 7.6875 -31.28125 C 8.3125 -31.28125 9.050781 -31.34375 9.90625 -31.46875 C 10.769531 -31.59375 11.597656 -31.65625 12.390625 -31.65625 C 13.097656 -31.65625 13.691406 -31.546875 14.171875 -31.328125 C 14.648438 -31.117188 14.890625 -30.703125 14.890625 -30.078125 C 14.890625 -29.617188 14.785156 -29.273438 14.578125 -29.046875 C 14.367188 -28.816406 14.117188 -28.523438 13.828125 -28.171875 C 13.535156 -27.816406 13.285156 -27.265625 13.078125 -26.515625 C 12.867188 -25.765625 12.765625 -24.660156 12.765625 -23.203125 L 12.765625 -4.375 C 12.765625 -3.832031 12.929688 -3.46875 13.265625 -3.28125 C 13.597656 -3.09375 13.972656 -3 14.390625 -3 C 14.804688 -3 15.160156 -3 15.453125 -3 C 16.367188 -3 17.210938 -3.332031 17.984375 -4 C 18.753906 -4.664062 19.460938 -5.488281 20.109375 -6.46875 C 20.753906 -7.445312 21.359375 -8.425781 21.921875 -9.40625 C 22.484375 -10.394531 23.046875 -11.222656 23.609375 -11.890625 C 24.171875 -12.554688 24.742188 -12.890625 25.328125 -12.890625 C 26.328125 -12.890625 26.773438 -12.332031 26.671875 -11.21875 C 26.566406 -10.113281 26.117188 -8.144531 25.328125 -5.3125 C 25.035156 -4.1875 24.867188 -3.195312 24.828125 -2.34375 C 24.785156 -1.488281 24.640625 -0.820312 24.390625 -0.34375 C 24.140625 0.132812 23.554688 0.375 22.640625 0.375 C 19.515625 0.375 16.734375 0.3125 14.296875 0.1875 C 11.859375 0.0625 9.632812 0 7.625 0 C 6.625 0 5.6875 0.0625 4.8125 0.1875 C 3.9375 0.3125 3.164062 0.375 2.5 0.375 C 1.914062 0.375 1.445312 0.269531 1.09375 0.0625 C 0.738281 -0.144531 0.5625 -0.5625 0.5625 -1.1875 C 0.5625 -1.644531 0.664062 -1.988281 0.875 -2.21875 C 1.082031 -2.445312 1.332031 -2.738281 1.625 -3.09375 C 1.914062 -3.445312 2.164062 -4 2.375 -4.75 C 2.582031 -5.5 2.6875 -6.601562 2.6875 -8.0625 L 2.6875 -23.203125 C 2.6875 -24.660156 2.582031 -25.765625 2.375 -26.515625 C 2.164062 -27.265625 1.914062 -27.816406 1.625 -28.171875 C 1.332031 -28.523438 1.082031 -28.816406 0.875 -29.046875 C 0.664062 -29.273438 0.5625 -29.617188 0.5625 -30.078125 Z M 0.5625 -30.078125 "/></g></g></g><g fill="#ffffff" fill-opacity="1"><g transform="translate(139.300977, 179.103234)"><g><path d="M 2.75 -23.203125 C 2.75 -24.617188 2.644531 -25.691406 2.4375 -26.421875 C 2.226562 -27.148438 1.976562 -27.691406 1.6875 -28.046875 C 1.394531 -28.398438 1.144531 -28.703125 0.9375 -28.953125 C 0.726562 -29.203125 0.625 -29.554688 0.625 -30.015625 C 0.625 -30.679688 0.8125 -31.117188 1.1875 -31.328125 C 1.5625 -31.546875 2.019531 -31.65625 2.5625 -31.65625 C 3.1875 -31.65625 3.863281 -31.59375 4.59375 -31.46875 C 5.320312 -31.34375 6 -31.28125 6.625 -31.28125 C 7.125 -31.28125 7.601562 -31.28125 8.0625 -31.28125 C 8.519531 -31.28125 8.957031 -31.28125 9.375 -31.28125 C 12.09375 -31.28125 14.429688 -31.351562 16.390625 -31.5 C 18.347656 -31.644531 19.972656 -31.695312 21.265625 -31.65625 C 22.640625 -31.613281 23.648438 -31.484375 24.296875 -31.265625 C 24.941406 -31.054688 25.515625 -30.347656 26.015625 -29.140625 C 26.640625 -27.640625 27.191406 -26.253906 27.671875 -24.984375 C 28.148438 -23.710938 28.378906 -22.679688 28.359375 -21.890625 C 28.335938 -21.097656 27.867188 -20.703125 26.953125 -20.703125 C 26.410156 -20.703125 25.929688 -20.929688 25.515625 -21.390625 C 25.097656 -21.847656 24.628906 -22.410156 24.109375 -23.078125 C 23.585938 -23.742188 22.941406 -24.429688 22.171875 -25.140625 C 21.398438 -25.847656 20.390625 -26.460938 19.140625 -26.984375 C 17.890625 -27.503906 16.304688 -27.828125 14.390625 -27.953125 C 13.929688 -27.992188 13.554688 -27.867188 13.265625 -27.578125 C 12.972656 -27.285156 12.828125 -26.910156 12.828125 -26.453125 L 12.828125 -18.890625 C 12.828125 -17.804688 13.347656 -17.328125 14.390625 -17.453125 C 15.804688 -17.660156 16.859375 -17.960938 17.546875 -18.359375 C 18.234375 -18.753906 18.734375 -19.171875 19.046875 -19.609375 C 19.359375 -20.046875 19.660156 -20.421875 19.953125 -20.734375 C 20.242188 -21.046875 20.679688 -21.203125 21.265625 -21.203125 C 22.140625 -21.203125 22.660156 -20.910156 22.828125 -20.328125 C 22.992188 -19.742188 23.023438 -19.054688 22.921875 -18.265625 C 22.816406 -17.472656 22.765625 -16.765625 22.765625 -16.140625 C 22.765625 -15.515625 22.816406 -14.804688 22.921875 -14.015625 C 23.023438 -13.222656 22.992188 -12.535156 22.828125 -11.953125 C 22.660156 -11.367188 22.140625 -11.078125 21.265625 -11.078125 C 20.679688 -11.078125 20.242188 -11.222656 19.953125 -11.515625 C 19.660156 -11.804688 19.359375 -12.171875 19.046875 -12.609375 C 18.734375 -13.046875 18.234375 -13.460938 17.546875 -13.859375 C 16.859375 -14.253906 15.804688 -14.535156 14.390625 -14.703125 C 13.347656 -14.828125 12.828125 -14.347656 12.828125 -13.265625 L 12.828125 -8.0625 C 12.828125 -6.601562 12.929688 -5.5 13.140625 -4.75 C 13.347656 -4 13.585938 -3.445312 13.859375 -3.09375 C 14.128906 -2.738281 14.378906 -2.445312 14.609375 -2.21875 C 14.835938 -1.988281 14.953125 -1.644531 14.953125 -1.1875 C 14.953125 -0.5625 14.710938 -0.144531 14.234375 0.0625 C 13.753906 0.269531 13.160156 0.375 12.453125 0.375 C 11.703125 0.375 10.894531 0.3125 10.03125 0.1875 C 9.175781 0.0625 8.4375 0 7.8125 0 C 7.1875 0 6.445312 0.0625 5.59375 0.1875 C 4.738281 0.3125 3.9375 0.375 3.1875 0.375 C 2.476562 0.375 1.882812 0.269531 1.40625 0.0625 C 0.925781 -0.144531 0.6875 -0.5625 0.6875 -1.1875 C 0.6875 -1.644531 0.789062 -1.988281 1 -2.21875 C 1.207031 -2.445312 1.457031 -2.738281 1.75 -3.09375 C 2.039062 -3.445312 2.28125 -4 2.46875 -4.75 C 2.65625 -5.5 2.75 -6.601562 2.75 -8.0625 Z M 2.75 -23.203125 "/></g></g></g><g fill="#ffffff" fill-opacity="1"><g transform="translate(86.564634, 223.036157)"><g><path d="M 1.25 -15.640625 C 1.25 -18.640625 1.90625 -21.347656 3.21875 -23.765625 C 4.53125 -26.179688 6.363281 -28.097656 8.71875 -29.515625 C 11.082031 -30.941406 13.785156 -31.65625 16.828125 -31.65625 C 18.035156 -31.65625 18.972656 -31.59375 19.640625 -31.46875 C 20.304688 -31.34375 21.097656 -31.28125 22.015625 -31.28125 C 22.722656 -31.28125 23.390625 -31.34375 24.015625 -31.46875 C 24.640625 -31.59375 25.203125 -31.65625 25.703125 -31.65625 C 26.035156 -31.65625 26.328125 -31.59375 26.578125 -31.46875 C 26.828125 -31.34375 27.035156 -31.085938 27.203125 -30.703125 C 27.910156 -28.953125 28.535156 -27.316406 29.078125 -25.796875 C 29.617188 -24.273438 29.898438 -23.046875 29.921875 -22.109375 C 29.941406 -21.171875 29.453125 -20.703125 28.453125 -20.703125 C 27.535156 -20.703125 26.765625 -21.066406 26.140625 -21.796875 C 25.515625 -22.523438 24.867188 -23.378906 24.203125 -24.359375 C 23.535156 -25.335938 22.734375 -26.191406 21.796875 -26.921875 C 20.859375 -27.648438 19.617188 -28.015625 18.078125 -28.015625 C 16.617188 -28.015625 15.429688 -27.429688 14.515625 -26.265625 C 13.597656 -25.097656 12.929688 -23.578125 12.515625 -21.703125 C 12.097656 -19.828125 11.890625 -17.804688 11.890625 -15.640625 C 11.890625 -13.472656 12.097656 -11.425781 12.515625 -9.5 C 12.929688 -7.582031 13.597656 -6.019531 14.515625 -4.8125 C 15.429688 -3.601562 16.660156 -3 18.203125 -3 C 19.578125 -3 20.609375 -3.332031 21.296875 -4 C 21.984375 -4.664062 22.515625 -5.488281 22.890625 -6.46875 C 23.265625 -7.445312 23.609375 -8.425781 23.921875 -9.40625 C 24.234375 -10.394531 24.679688 -11.222656 25.265625 -11.890625 C 25.847656 -12.554688 26.703125 -12.890625 27.828125 -12.890625 C 29.117188 -12.890625 30.078125 -12.4375 30.703125 -11.53125 C 31.335938 -10.632812 31.566406 -9.53125 31.390625 -8.21875 C 31.222656 -6.90625 30.609375 -5.59375 29.546875 -4.28125 C 28.484375 -2.96875 26.910156 -1.863281 24.828125 -0.96875 C 22.742188 -0.0703125 20.078125 0.375 16.828125 0.375 C 13.660156 0.375 10.90625 -0.332031 8.5625 -1.75 C 6.226562 -3.164062 4.425781 -5.082031 3.15625 -7.5 C 1.882812 -9.925781 1.25 -12.640625 1.25 -15.640625 Z M 1.25 -15.640625 "/></g></g></g><g fill="#ffffff" fill-opacity="1"><g transform="translate(118.647683, 223.036157)"><g><path d="M 0.625 -30.078125 C 0.625 -30.742188 0.820312 -31.179688 1.21875 -31.390625 C 1.613281 -31.609375 2.101562 -31.71875 2.6875 -31.71875 C 3.351562 -31.71875 4.082031 -31.65625 4.875 -31.53125 C 5.664062 -31.40625 6.4375 -31.34375 7.1875 -31.34375 C 8.519531 -31.34375 9.882812 -31.394531 11.28125 -31.5 C 12.6875 -31.601562 14.203125 -31.65625 15.828125 -31.65625 C 17.410156 -31.65625 18.953125 -31.546875 20.453125 -31.328125 C 21.953125 -31.117188 23.296875 -30.710938 24.484375 -30.109375 C 25.671875 -29.503906 26.617188 -28.609375 27.328125 -27.421875 C 28.035156 -26.234375 28.390625 -24.660156 28.390625 -22.703125 C 28.390625 -20.660156 27.847656 -18.984375 26.765625 -17.671875 C 25.679688 -16.359375 24.285156 -15.347656 22.578125 -14.640625 C 23.078125 -14.640625 23.585938 -14.304688 24.109375 -13.640625 C 24.628906 -12.972656 25.148438 -12.113281 25.671875 -11.0625 C 26.191406 -10.019531 26.703125 -8.925781 27.203125 -7.78125 C 27.703125 -6.632812 28.179688 -5.582031 28.640625 -4.625 C 29.015625 -3.875 29.398438 -3.332031 29.796875 -3 C 30.191406 -2.664062 30.535156 -2.394531 30.828125 -2.1875 C 31.128906 -1.976562 31.28125 -1.625 31.28125 -1.125 C 31.28125 -0.539062 31.128906 -0.144531 30.828125 0.0625 C 30.535156 0.269531 30.160156 0.375 29.703125 0.375 C 29.160156 0.375 28.535156 0.3125 27.828125 0.1875 C 27.117188 0.0625 26.347656 0 25.515625 0 C 25.097656 0 24.328125 0.0625 23.203125 0.1875 C 22.078125 0.3125 21.097656 0.375 20.265625 0.375 C 19.390625 0.375 18.765625 -0.0703125 18.390625 -0.96875 C 18.015625 -1.863281 17.753906 -2.976562 17.609375 -4.3125 C 17.460938 -5.644531 17.296875 -6.988281 17.109375 -8.34375 C 16.921875 -9.695312 16.617188 -10.820312 16.203125 -11.71875 C 15.785156 -12.625 15.097656 -13.078125 14.140625 -13.078125 C 13.097656 -13.078125 12.578125 -12.554688 12.578125 -11.515625 L 12.578125 -8.0625 C 12.578125 -6.601562 12.679688 -5.5 12.890625 -4.75 C 13.097656 -4 13.347656 -3.445312 13.640625 -3.09375 C 13.929688 -2.738281 14.179688 -2.445312 14.390625 -2.21875 C 14.597656 -1.988281 14.703125 -1.644531 14.703125 -1.1875 C 14.703125 -0.5625 14.460938 -0.144531 13.984375 0.0625 C 13.503906 0.269531 12.910156 0.375 12.203125 0.375 C 11.492188 0.375 10.71875 0.3125 9.875 0.1875 C 9.039062 0.0625 8.332031 0 7.75 0 C 7.125 0 6.382812 0.0625 5.53125 0.1875 C 4.675781 0.3125 3.875 0.375 3.125 0.375 C 2.414062 0.375 1.820312 0.269531 1.34375 0.0625 C 0.863281 -0.144531 0.625 -0.5625 0.625 -1.1875 C 0.625 -1.644531 0.726562 -1.988281 0.9375 -2.21875 C 1.144531 -2.445312 1.394531 -2.738281 1.6875 -3.09375 C 1.976562 -3.445312 2.226562 -4 2.4375 -4.75 C 2.644531 -5.5 2.75 -6.601562 2.75 -8.0625 L 2.75 -23.203125 C 2.75 -24.660156 2.644531 -25.765625 2.4375 -26.515625 C 2.226562 -27.265625 1.976562 -27.816406 1.6875 -28.171875 C 1.394531 -28.523438 1.144531 -28.816406 0.9375 -29.046875 C 0.726562 -29.273438 0.625 -29.617188 0.625 -30.078125 Z M 12.515625 -18.515625 C 12.515625 -18.015625 12.671875 -17.660156 12.984375 -17.453125 C 13.296875 -17.242188 13.660156 -17.140625 14.078125 -17.140625 C 15.367188 -17.140625 16.410156 -17.628906 17.203125 -18.609375 C 17.992188 -19.585938 18.390625 -20.910156 18.390625 -22.578125 C 18.390625 -26.117188 16.953125 -27.890625 14.078125 -27.890625 C 13.660156 -27.890625 13.296875 -27.773438 12.984375 -27.546875 C 12.671875 -27.316406 12.515625 -26.953125 12.515625 -26.453125 Z M 12.515625 -18.515625 "/></g></g></g><g fill="#ffffff" fill-opacity="1"><g transform="translate(150.855809, 223.036157)"><g><path d="M 0.625 -30.015625 C 0.625 -30.679688 0.8125 -31.117188 1.1875 -31.328125 C 1.5625 -31.546875 2.019531 -31.65625 2.5625 -31.65625 C 3.1875 -31.65625 3.863281 -31.59375 4.59375 -31.46875 C 5.320312 -31.34375 6 -31.28125 6.625 -31.28125 C 7.125 -31.28125 7.601562 -31.28125 8.0625 -31.28125 C 8.519531 -31.28125 8.957031 -31.28125 9.375 -31.28125 C 12.09375 -31.28125 14.429688 -31.351562 16.390625 -31.5 C 18.347656 -31.644531 19.972656 -31.695312 21.265625 -31.65625 C 22.640625 -31.613281 23.648438 -31.484375 24.296875 -31.265625 C 24.941406 -31.054688 25.515625 -30.347656 26.015625 -29.140625 C 26.640625 -27.640625 27.191406 -26.253906 27.671875 -24.984375 C 28.148438 -23.710938 28.378906 -22.679688 28.359375 -21.890625 C 28.335938 -21.097656 27.867188 -20.703125 26.953125 -20.703125 C 26.410156 -20.703125 25.929688 -20.929688 25.515625 -21.390625 C 25.097656 -21.847656 24.628906 -22.410156 24.109375 -23.078125 C 23.585938 -23.742188 22.941406 -24.429688 22.171875 -25.140625 C 21.398438 -25.847656 20.390625 -26.460938 19.140625 -26.984375 C 17.890625 -27.503906 16.304688 -27.828125 14.390625 -27.953125 C 13.929688 -27.992188 13.554688 -27.867188 13.265625 -27.578125 C 12.972656 -27.285156 12.828125 -26.910156 12.828125 -26.453125 L 12.828125 -18.890625 C 12.828125 -17.804688 13.347656 -17.328125 14.390625 -17.453125 C 15.804688 -17.660156 16.859375 -17.960938 17.546875 -18.359375 C 18.234375 -18.753906 18.734375 -19.171875 19.046875 -19.609375 C 19.359375 -20.046875 19.660156 -20.421875 19.953125 -20.734375 C 20.242188 -21.046875 20.679688 -21.203125 21.265625 -21.203125 C 22.140625 -21.203125 22.660156 -20.878906 22.828125 -20.234375 C 22.992188 -19.585938 23.023438 -18.828125 22.921875 -17.953125 C 22.816406 -17.078125 22.765625 -16.328125 22.765625 -15.703125 C 22.765625 -15.078125 22.816406 -14.335938 22.921875 -13.484375 C 23.023438 -12.628906 22.992188 -11.863281 22.828125 -11.1875 C 22.660156 -10.519531 22.140625 -10.1875 21.265625 -10.1875 C 20.679688 -10.1875 20.242188 -10.332031 19.953125 -10.625 C 19.660156 -10.925781 19.359375 -11.296875 19.046875 -11.734375 C 18.734375 -12.171875 18.234375 -12.585938 17.546875 -12.984375 C 16.859375 -13.378906 15.804688 -13.660156 14.390625 -13.828125 C 13.347656 -13.953125 12.828125 -13.472656 12.828125 -12.390625 L 12.828125 -4.5625 C 12.828125 -4.101562 12.972656 -3.726562 13.265625 -3.4375 C 13.554688 -3.144531 13.929688 -3.019531 14.390625 -3.0625 C 16.429688 -3.1875 18.117188 -3.601562 19.453125 -4.3125 C 20.785156 -5.019531 21.878906 -5.851562 22.734375 -6.8125 C 23.585938 -7.769531 24.296875 -8.707031 24.859375 -9.625 C 25.421875 -10.550781 25.953125 -11.328125 26.453125 -11.953125 C 26.953125 -12.578125 27.515625 -12.890625 28.140625 -12.890625 C 29.140625 -12.890625 29.585938 -12.332031 29.484375 -11.21875 C 29.378906 -10.113281 28.929688 -8.144531 28.140625 -5.3125 C 27.847656 -4.1875 27.597656 -3.195312 27.390625 -2.34375 C 27.179688 -1.488281 26.867188 -0.8125 26.453125 -0.3125 C 26.035156 0.1875 25.367188 0.414062 24.453125 0.375 C 20.742188 0.207031 17.546875 0.101562 14.859375 0.0625 C 12.171875 0.0195312 9.820312 0 7.8125 0 C 7.1875 0 6.445312 0.0625 5.59375 0.1875 C 4.738281 0.3125 3.9375 0.375 3.1875 0.375 C 2.476562 0.375 1.882812 0.269531 1.40625 0.0625 C 0.925781 -0.144531 0.6875 -0.5625 0.6875 -1.1875 C 0.6875 -1.644531 0.789062 -1.988281 1 -2.21875 C 1.207031 -2.445312 1.457031 -2.738281 1.75 -3.09375 C 2.039062 -3.445312 2.28125 -4 2.46875 -4.75 C 2.65625 -5.5 2.75 -6.601562 2.75 -8.0625 L 2.75 -23.203125 C 2.75 -24.617188 2.644531 -25.691406 2.4375 -26.421875 C 2.226562 -27.148438 1.976562 -27.691406 1.6875 -28.046875 C 1.394531 -28.398438 1.144531 -28.703125 0.9375 -28.953125 C 0.726562 -29.203125 0.625 -29.554688 0.625 -30.015625 Z M 0.625 -30.015625 "/></g></g></g><g fill="#ffffff" fill-opacity="1"><g transform="translate(180.937569, 223.036157)"><g><path d="M 0.3125 -1.1875 C 0.3125 -1.6875 0.46875 -2.0625 0.78125 -2.3125 C 1.09375 -2.5625 1.519531 -2.894531 2.0625 -3.3125 C 2.601562 -3.726562 3.207031 -4.394531 3.875 -5.3125 C 4.25 -5.851562 4.71875 -6.875 5.28125 -8.375 C 5.84375 -9.882812 6.457031 -11.640625 7.125 -13.640625 C 7.789062 -15.640625 8.46875 -17.703125 9.15625 -19.828125 C 9.84375 -21.953125 10.484375 -23.910156 11.078125 -25.703125 C 11.410156 -26.660156 11.535156 -27.359375 11.453125 -27.796875 C 11.367188 -28.234375 11.191406 -28.566406 10.921875 -28.796875 C 10.648438 -29.023438 10.394531 -29.234375 10.15625 -29.421875 C 9.925781 -29.609375 9.8125 -29.910156 9.8125 -30.328125 C 9.8125 -30.910156 10.070312 -31.273438 10.59375 -31.421875 C 11.125 -31.578125 11.722656 -31.65625 12.390625 -31.65625 C 13.179688 -31.65625 13.785156 -31.59375 14.203125 -31.46875 C 14.617188 -31.34375 15.367188 -31.28125 16.453125 -31.28125 C 17.660156 -31.28125 18.597656 -31.34375 19.265625 -31.46875 C 19.929688 -31.59375 20.578125 -31.65625 21.203125 -31.65625 C 21.660156 -31.65625 22.046875 -31.59375 22.359375 -31.46875 C 22.671875 -31.34375 22.972656 -30.921875 23.265625 -30.203125 C 23.640625 -29.328125 24.117188 -27.960938 24.703125 -26.109375 C 25.285156 -24.253906 25.921875 -22.203125 26.609375 -19.953125 C 27.296875 -17.703125 27.992188 -15.476562 28.703125 -13.28125 C 29.410156 -11.09375 30.078125 -9.1875 30.703125 -7.5625 C 31.335938 -5.9375 31.863281 -4.851562 32.28125 -4.3125 C 32.988281 -3.4375 33.550781 -2.851562 33.96875 -2.5625 C 34.382812 -2.269531 34.59375 -1.8125 34.59375 -1.1875 C 34.59375 -0.5625 34.382812 -0.144531 33.96875 0.0625 C 33.550781 0.269531 32.988281 0.375 32.28125 0.375 C 31.476562 0.375 30.523438 0.3125 29.421875 0.1875 C 28.316406 0.0625 27.117188 0 25.828125 0 C 25.203125 0 24.441406 0.0625 23.546875 0.1875 C 22.648438 0.3125 21.785156 0.375 20.953125 0.375 C 20.203125 0.375 19.566406 0.269531 19.046875 0.0625 C 18.523438 -0.144531 18.265625 -0.5625 18.265625 -1.1875 C 18.265625 -1.8125 18.398438 -2.257812 18.671875 -2.53125 C 18.941406 -2.800781 19.203125 -3.1875 19.453125 -3.6875 C 19.703125 -4.1875 19.828125 -5.039062 19.828125 -6.25 C 19.828125 -7.207031 19.597656 -7.957031 19.140625 -8.5 C 18.679688 -9.039062 18.097656 -9.3125 17.390625 -9.3125 L 11.640625 -9.3125 C 10.929688 -9.3125 10.34375 -9.039062 9.875 -8.5 C 9.414062 -7.957031 9.1875 -7.207031 9.1875 -6.25 C 9.1875 -5.039062 9.351562 -4.164062 9.6875 -3.625 C 10.019531 -3.082031 10.351562 -2.664062 10.6875 -2.375 C 11.03125 -2.082031 11.203125 -1.6875 11.203125 -1.1875 C 11.203125 -0.601562 10.96875 -0.195312 10.5 0.03125 C 10.039062 0.257812 9.519531 0.375 8.9375 0.375 C 8.226562 0.375 7.675781 0.3125 7.28125 0.1875 C 6.882812 0.0625 6.375 0 5.75 0 C 5.125 0 4.613281 0.0625 4.21875 0.1875 C 3.820312 0.3125 3.269531 0.375 2.5625 0.375 C 1.976562 0.375 1.457031 0.257812 1 0.03125 C 0.539062 -0.195312 0.3125 -0.601562 0.3125 -1.1875 Z M 10.953125 -13.828125 C 10.617188 -12.867188 10.929688 -12.390625 11.890625 -12.390625 L 16.953125 -12.390625 C 17.910156 -12.390625 18.222656 -12.867188 17.890625 -13.828125 C 17.347656 -15.410156 16.828125 -17.066406 16.328125 -18.796875 C 15.828125 -20.523438 15.410156 -21.972656 15.078125 -23.140625 C 14.910156 -23.679688 14.722656 -23.953125 14.515625 -23.953125 C 14.347656 -23.953125 14.160156 -23.703125 13.953125 -23.203125 C 13.535156 -22.035156 13.078125 -20.578125 12.578125 -18.828125 C 12.078125 -17.078125 11.535156 -15.410156 10.953125 -13.828125 Z M 10.953125 -13.828125 "/></g></g></g><g fill="#ffffff" fill-opacity="1"><g transform="translate(215.834916, 223.036157)"><g><path d="M 2 -19.890625 C 1.125 -19.890625 0.625 -20.410156 0.5 -21.453125 C 0.375 -22.492188 0.3125 -23.828125 0.3125 -25.453125 L 0.3125 -28.765625 C 0.3125 -29.515625 0.53125 -30.179688 0.96875 -30.765625 C 1.40625 -31.359375 2 -31.65625 2.75 -31.65625 C 4.414062 -31.65625 6.164062 -31.59375 8 -31.46875 C 9.84375 -31.34375 12.285156 -31.28125 15.328125 -31.28125 C 18.328125 -31.28125 20.734375 -31.34375 22.546875 -31.46875 C 24.359375 -31.59375 26.097656 -31.65625 27.765625 -31.65625 C 28.515625 -31.65625 29.078125 -31.359375 29.453125 -30.765625 C 29.828125 -30.179688 30.015625 -29.515625 30.015625 -28.765625 L 30.015625 -26.203125 C 30.015625 -25.117188 30.003906 -24.097656 29.984375 -23.140625 C 29.960938 -22.179688 29.835938 -21.398438 29.609375 -20.796875 C 29.378906 -20.191406 28.953125 -19.890625 28.328125 -19.890625 C 27.535156 -19.890625 26.859375 -20.296875 26.296875 -21.109375 C 25.734375 -21.921875 25.222656 -22.847656 24.765625 -23.890625 C 24.304688 -24.929688 23.835938 -25.859375 23.359375 -26.671875 C 22.878906 -27.484375 22.285156 -27.890625 21.578125 -27.890625 C 20.660156 -27.890625 20.203125 -27.410156 20.203125 -26.453125 L 20.203125 -8.0625 C 20.203125 -6.601562 20.304688 -5.5 20.515625 -4.75 C 20.722656 -4 20.972656 -3.445312 21.265625 -3.09375 C 21.554688 -2.738281 21.804688 -2.445312 22.015625 -2.21875 C 22.222656 -1.988281 22.328125 -1.644531 22.328125 -1.1875 C 22.328125 -0.5625 22.085938 -0.144531 21.609375 0.0625 C 21.128906 0.269531 20.535156 0.375 19.828125 0.375 C 19.035156 0.375 18.210938 0.3125 17.359375 0.1875 C 16.503906 0.0625 15.765625 0 15.140625 0 C 14.515625 0 13.773438 0.0625 12.921875 0.1875 C 12.066406 0.3125 11.265625 0.375 10.515625 0.375 C 9.796875 0.375 9.195312 0.269531 8.71875 0.0625 C 8.238281 -0.144531 8 -0.5625 8 -1.1875 C 8 -1.644531 8.101562 -1.988281 8.3125 -2.21875 C 8.519531 -2.445312 8.769531 -2.738281 9.0625 -3.09375 C 9.351562 -3.445312 9.601562 -4 9.8125 -4.75 C 10.019531 -5.5 10.125 -6.601562 10.125 -8.0625 L 10.125 -26.453125 C 10.125 -27.410156 9.664062 -27.890625 8.75 -27.890625 C 8.082031 -27.890625 7.5 -27.484375 7 -26.671875 C 6.5 -25.859375 6.019531 -24.929688 5.5625 -23.890625 C 5.101562 -22.847656 4.59375 -21.921875 4.03125 -21.109375 C 3.46875 -20.296875 2.789062 -19.890625 2 -19.890625 Z M 2 -19.890625 "/></g></g></g><g fill="#ffffff" fill-opacity="1"><g transform="translate(246.166837, 223.036157)"><g><path d="M 0.625 -1.1875 C 0.625 -1.644531 0.726562 -1.988281 0.9375 -2.21875 C 1.144531 -2.445312 1.394531 -2.738281 1.6875 -3.09375 C 1.976562 -3.445312 2.226562 -4 2.4375 -4.75 C 2.644531 -5.5 2.75 -6.601562 2.75 -8.0625 L 2.75 -23.203125 C 2.75 -24.660156 2.644531 -25.765625 2.4375 -26.515625 C 2.226562 -27.265625 1.976562 -27.816406 1.6875 -28.171875 C 1.394531 -28.523438 1.144531 -28.816406 0.9375 -29.046875 C 0.726562 -29.273438 0.625 -29.617188 0.625 -30.078125 C 0.625 -30.703125 0.863281 -31.117188 1.34375 -31.328125 C 1.820312 -31.546875 2.414062 -31.65625 3.125 -31.65625 C 3.875 -31.65625 4.675781 -31.59375 5.53125 -31.46875 C 6.382812 -31.34375 7.125 -31.28125 7.75 -31.28125 C 8.375 -31.28125 9.113281 -31.34375 9.96875 -31.46875 C 10.832031 -31.59375 11.640625 -31.65625 12.390625 -31.65625 C 13.097656 -31.65625 13.691406 -31.546875 14.171875 -31.328125 C 14.648438 -31.117188 14.890625 -30.703125 14.890625 -30.078125 C 14.890625 -29.617188 14.785156 -29.273438 14.578125 -29.046875 C 14.367188 -28.816406 14.117188 -28.523438 13.828125 -28.171875 C 13.535156 -27.816406 13.285156 -27.265625 13.078125 -26.515625 C 12.867188 -25.765625 12.765625 -24.660156 12.765625 -23.203125 L 12.765625 -8.0625 C 12.765625 -6.601562 12.867188 -5.5 13.078125 -4.75 C 13.285156 -4 13.535156 -3.445312 13.828125 -3.09375 C 14.117188 -2.738281 14.367188 -2.445312 14.578125 -2.21875 C 14.785156 -1.988281 14.890625 -1.644531 14.890625 -1.1875 C 14.890625 -0.5625 14.648438 -0.144531 14.171875 0.0625 C 13.691406 0.269531 13.097656 0.375 12.390625 0.375 C 11.640625 0.375 10.832031 0.3125 9.96875 0.1875 C 9.113281 0.0625 8.375 0 7.75 0 C 7.125 0 6.382812 0.0625 5.53125 0.1875 C 4.675781 0.3125 3.875 0.375 3.125 0.375 C 2.414062 0.375 1.820312 0.269531 1.34375 0.0625 C 0.863281 -0.144531 0.625 -0.5625 0.625 -1.1875 Z M 0.625 -1.1875 "/></g></g></g><g fill="#ffffff" fill-opacity="1"><g transform="translate(261.676778, 223.036157)"><g><path d="M 3.3125 -26.578125 C 2.726562 -27.160156 2.082031 -27.640625 1.375 -28.015625 C 0.664062 -28.390625 0.3125 -28.992188 0.3125 -29.828125 C 0.3125 -30.535156 0.664062 -31.015625 1.375 -31.265625 C 2.082031 -31.523438 2.9375 -31.65625 3.9375 -31.65625 C 4.894531 -31.65625 5.863281 -31.601562 6.84375 -31.5 C 7.820312 -31.394531 8.6875 -31.34375 9.4375 -31.34375 C 10.40625 -31.34375 11.410156 -31.40625 12.453125 -31.53125 C 13.492188 -31.65625 14.429688 -31.71875 15.265625 -31.71875 C 16.015625 -31.71875 16.640625 -31.609375 17.140625 -31.390625 C 17.640625 -31.179688 17.890625 -30.785156 17.890625 -30.203125 C 17.890625 -29.617188 17.671875 -29.140625 17.234375 -28.765625 C 16.796875 -28.390625 16.390625 -27.984375 16.015625 -27.546875 C 15.640625 -27.109375 15.578125 -26.492188 15.828125 -25.703125 C 15.953125 -25.285156 16.179688 -24.617188 16.515625 -23.703125 C 16.847656 -22.785156 17.222656 -21.785156 17.640625 -20.703125 C 18.054688 -19.617188 18.460938 -18.566406 18.859375 -17.546875 C 19.253906 -16.523438 19.597656 -15.660156 19.890625 -14.953125 C 20.265625 -14.078125 20.640625 -14.078125 21.015625 -14.953125 C 21.429688 -15.953125 21.929688 -17.171875 22.515625 -18.609375 C 23.097656 -20.046875 23.640625 -21.429688 24.140625 -22.765625 C 24.640625 -24.097656 24.972656 -25.054688 25.140625 -25.640625 C 25.390625 -26.429688 25.335938 -27.046875 24.984375 -27.484375 C 24.628906 -27.921875 24.222656 -28.328125 23.765625 -28.703125 C 23.304688 -29.078125 23.078125 -29.554688 23.078125 -30.140625 C 23.078125 -30.722656 23.234375 -31.117188 23.546875 -31.328125 C 23.859375 -31.546875 24.265625 -31.65625 24.765625 -31.65625 C 25.347656 -31.65625 25.972656 -31.59375 26.640625 -31.46875 C 27.304688 -31.34375 27.972656 -31.28125 28.640625 -31.28125 C 29.140625 -31.28125 29.703125 -31.34375 30.328125 -31.46875 C 30.960938 -31.59375 31.550781 -31.65625 32.09375 -31.65625 C 32.632812 -31.65625 33.082031 -31.546875 33.4375 -31.328125 C 33.789062 -31.117188 33.96875 -30.703125 33.96875 -30.078125 C 33.96875 -29.328125 33.613281 -28.703125 32.90625 -28.203125 C 32.195312 -27.703125 31.546875 -27.160156 30.953125 -26.578125 C 30.410156 -26.035156 29.835938 -25.222656 29.234375 -24.140625 C 28.628906 -23.054688 28.046875 -21.890625 27.484375 -20.640625 C 26.921875 -19.390625 26.410156 -18.179688 25.953125 -17.015625 C 25.492188 -15.847656 25.117188 -14.910156 24.828125 -14.203125 C 24.242188 -12.742188 23.597656 -11.207031 22.890625 -9.59375 C 22.179688 -7.988281 21.503906 -6.445312 20.859375 -4.96875 C 20.210938 -3.488281 19.660156 -2.207031 19.203125 -1.125 C 18.785156 -0.125 18.097656 0.375 17.140625 0.375 C 16.179688 0.375 15.492188 -0.125 15.078125 -1.125 C 14.660156 -2.207031 14.117188 -3.488281 13.453125 -4.96875 C 12.785156 -6.445312 12.101562 -7.988281 11.40625 -9.59375 C 10.71875 -11.207031 10.0625 -12.742188 9.4375 -14.203125 C 9.144531 -14.910156 8.769531 -15.847656 8.3125 -17.015625 C 7.851562 -18.179688 7.34375 -19.390625 6.78125 -20.640625 C 6.21875 -21.890625 5.644531 -23.054688 5.0625 -24.140625 C 4.476562 -25.222656 3.894531 -26.035156 3.3125 -26.578125 Z M 3.3125 -26.578125 "/></g></g></g><g fill="#ffffff" fill-opacity="1"><g transform="translate(295.94872, 223.036157)"><g><path d="M 0.625 -30.015625 C 0.625 -30.679688 0.8125 -31.117188 1.1875 -31.328125 C 1.5625 -31.546875 2.019531 -31.65625 2.5625 -31.65625 C 3.1875 -31.65625 3.863281 -31.59375 4.59375 -31.46875 C 5.320312 -31.34375 6 -31.28125 6.625 -31.28125 C 7.125 -31.28125 7.601562 -31.28125 8.0625 -31.28125 C 8.519531 -31.28125 8.957031 -31.28125 9.375 -31.28125 C 12.09375 -31.28125 14.429688 -31.351562 16.390625 -31.5 C 18.347656 -31.644531 19.972656 -31.695312 21.265625 -31.65625 C 22.640625 -31.613281 23.648438 -31.484375 24.296875 -31.265625 C 24.941406 -31.054688 25.515625 -30.347656 26.015625 -29.140625 C 26.640625 -27.640625 27.191406 -26.253906 27.671875 -24.984375 C 28.148438 -23.710938 28.378906 -22.679688 28.359375 -21.890625 C 28.335938 -21.097656 27.867188 -20.703125 26.953125 -20.703125 C 26.410156 -20.703125 25.929688 -20.929688 25.515625 -21.390625 C 25.097656 -21.847656 24.628906 -22.410156 24.109375 -23.078125 C 23.585938 -23.742188 22.941406 -24.429688 22.171875 -25.140625 C 21.398438 -25.847656 20.390625 -26.460938 19.140625 -26.984375 C 17.890625 -27.503906 16.304688 -27.828125 14.390625 -27.953125 C 13.929688 -27.992188 13.554688 -27.867188 13.265625 -27.578125 C 12.972656 -27.285156 12.828125 -26.910156 12.828125 -26.453125 L 12.828125 -18.890625 C 12.828125 -17.804688 13.347656 -17.328125 14.390625 -17.453125 C 15.804688 -17.660156 16.859375 -17.960938 17.546875 -18.359375 C 18.234375 -18.753906 18.734375 -19.171875 19.046875 -19.609375 C 19.359375 -20.046875 19.660156 -20.421875 19.953125 -20.734375 C 20.242188 -21.046875 20.679688 -21.203125 21.265625 -21.203125 C 22.140625 -21.203125 22.660156 -20.878906 22.828125 -20.234375 C 22.992188 -19.585938 23.023438 -18.828125 22.921875 -17.953125 C 22.816406 -17.078125 22.765625 -16.328125 22.765625 -15.703125 C 22.765625 -15.078125 22.816406 -14.335938 22.921875 -13.484375 C 23.023438 -12.628906 22.992188 -11.863281 22.828125 -11.1875 C 22.660156 -10.519531 22.140625 -10.1875 21.265625 -10.1875 C 20.679688 -10.1875 20.242188 -10.332031 19.953125 -10.625 C 19.660156 -10.925781 19.359375 -11.296875 19.046875 -11.734375 C 18.734375 -12.171875 18.234375 -12.585938 17.546875 -12.984375 C 16.859375 -13.378906 15.804688 -13.660156 14.390625 -13.828125 C 13.347656 -13.953125 12.828125 -13.472656 12.828125 -12.390625 L 12.828125 -4.5625 C 12.828125 -4.101562 12.972656 -3.726562 13.265625 -3.4375 C 13.554688 -3.144531 13.929688 -3.019531 14.390625 -3.0625 C 16.429688 -3.1875 18.117188 -3.601562 19.453125 -4.3125 C 20.785156 -5.019531 21.878906 -5.851562 22.734375 -6.8125 C 23.585938 -7.769531 24.296875 -8.707031 24.859375 -9.625 C 25.421875 -10.550781 25.953125 -11.328125 26.453125 -11.953125 C 26.953125 -12.578125 27.515625 -12.890625 28.140625 -12.890625 C 29.140625 -12.890625 29.585938 -12.332031 29.484375 -11.21875 C 29.378906 -10.113281 28.929688 -8.144531 28.140625 -5.3125 C 27.847656 -4.1875 27.597656 -3.195312 27.390625 -2.34375 C 27.179688 -1.488281 26.867188 -0.8125 26.453125 -0.3125 C 26.035156 0.1875 25.367188 0.414062 24.453125 0.375 C 20.742188 0.207031 17.546875 0.101562 14.859375 0.0625 C 12.171875 0.0195312 9.820312 0 7.8125 0 C 7.1875 0 6.445312 0.0625 5.59375 0.1875 C 4.738281 0.3125 3.9375 0.375 3.1875 0.375 C 2.476562 0.375 1.882812 0.269531 1.40625 0.0625 C 0.925781 -0.144531 0.6875 -0.5625 0.6875 -1.1875 C 0.6875 -1.644531 0.789062 -1.988281 1 -2.21875 C 1.207031 -2.445312 1.457031 -2.738281 1.75 -3.09375 C 2.039062 -3.445312 2.28125 -4 2.46875 -4.75 C 2.65625 -5.5 2.75 -6.601562 2.75 -8.0625 L 2.75 -23.203125 C 2.75 -24.617188 2.644531 -25.691406 2.4375 -26.421875 C 2.226562 -27.148438 1.976562 -27.691406 1.6875 -28.046875 C 1.394531 -28.398438 1.144531 -28.703125 0.9375 -28.953125 C 0.726562 -29.203125 0.625 -29.554688 0.625 -30.015625 Z M 0.625 -30.015625 "/></g></g></g><g fill="#ffffff" fill-opacity="1"><g transform="translate(326.030475, 223.036157)"><g><path d="M 1.6875 -6.1875 C 1.6875 -7.476562 1.601562 -8.59375 1.4375 -9.53125 C 1.269531 -10.476562 1.21875 -11.222656 1.28125 -11.765625 C 1.34375 -12.304688 1.75 -12.578125 2.5 -12.578125 C 3 -12.578125 3.5 -12.273438 4 -11.671875 C 4.5 -11.066406 5.070312 -10.3125 5.71875 -9.40625 C 6.363281 -8.507812 7.132812 -7.613281 8.03125 -6.71875 C 8.925781 -5.820312 10 -5.070312 11.25 -4.46875 C 12.507812 -3.863281 13.992188 -3.5625 15.703125 -3.5625 C 16.703125 -3.5625 17.523438 -3.738281 18.171875 -4.09375 C 18.816406 -4.445312 19.140625 -5.082031 19.140625 -6 C 19.140625 -6.832031 18.710938 -7.539062 17.859375 -8.125 C 17.003906 -8.707031 15.910156 -9.28125 14.578125 -9.84375 C 13.242188 -10.414062 11.820312 -11.023438 10.3125 -11.671875 C 8.8125 -12.316406 7.394531 -13.097656 6.0625 -14.015625 C 4.726562 -14.929688 3.644531 -16.066406 2.8125 -17.421875 C 1.976562 -18.773438 1.5625 -20.410156 1.5625 -22.328125 C 1.5625 -24.992188 2.539062 -27.210938 4.5 -28.984375 C 6.457031 -30.765625 9.378906 -31.65625 13.265625 -31.65625 C 14.472656 -31.65625 15.460938 -31.59375 16.234375 -31.46875 C 17.003906 -31.34375 17.847656 -31.28125 18.765625 -31.28125 C 19.472656 -31.28125 20.109375 -31.34375 20.671875 -31.46875 C 21.234375 -31.59375 21.722656 -31.65625 22.140625 -31.65625 C 22.472656 -31.65625 22.753906 -31.59375 22.984375 -31.46875 C 23.210938 -31.34375 23.410156 -31.085938 23.578125 -30.703125 C 24.535156 -28.617188 25.296875 -26.828125 25.859375 -25.328125 C 26.421875 -23.828125 26.640625 -22.679688 26.515625 -21.890625 C 26.390625 -21.097656 25.703125 -20.703125 24.453125 -20.703125 C 23.742188 -20.703125 23.078125 -21.066406 22.453125 -21.796875 C 21.828125 -22.523438 21.191406 -23.378906 20.546875 -24.359375 C 19.898438 -25.335938 19.140625 -26.191406 18.265625 -26.921875 C 17.390625 -27.648438 16.347656 -28.015625 15.140625 -28.015625 C 13.972656 -28.015625 13.078125 -27.703125 12.453125 -27.078125 C 11.828125 -26.453125 11.515625 -25.617188 11.515625 -24.578125 C 11.515625 -23.617188 11.921875 -22.816406 12.734375 -22.171875 C 13.546875 -21.523438 14.578125 -20.941406 15.828125 -20.421875 C 17.078125 -19.898438 18.421875 -19.347656 19.859375 -18.765625 C 21.296875 -18.179688 22.640625 -17.472656 23.890625 -16.640625 C 25.140625 -15.804688 26.171875 -14.765625 26.984375 -13.515625 C 27.796875 -12.265625 28.203125 -10.675781 28.203125 -8.75 C 28.203125 -6.75 27.578125 -5.070312 26.328125 -3.71875 C 25.078125 -2.363281 23.484375 -1.34375 21.546875 -0.65625 C 19.609375 0.03125 17.554688 0.375 15.390625 0.375 C 13.804688 0.375 12.457031 0.3125 11.34375 0.1875 C 10.238281 0.0625 8.894531 0 7.3125 0 C 6.269531 0 5.5 0.0625 5 0.1875 C 4.5 0.3125 3.8125 0.375 2.9375 0.375 C 2.101562 0.375 1.613281 0.0703125 1.46875 -0.53125 C 1.320312 -1.132812 1.320312 -1.9375 1.46875 -2.9375 C 1.613281 -3.9375 1.6875 -5.019531 1.6875 -6.1875 Z M 1.6875 -6.1875 "/></g></g></g><g clip-path="url(#ea0339ddbf)"><path fill="#f2f9f8" d="M 349.644531 248.207031 L 354.160156 243.691406 C 354.3125 243.539062 354.3125 243.292969 354.160156 243.140625 L 349.644531 238.625 C 349.398438 238.378906 349.574219 237.960938 349.921875 237.960938 L 353.449219 237.960938 C 353.550781 237.960938 353.648438 238 353.722656 238.074219 L 358.789062 243.140625 C 358.941406 243.292969 358.941406 243.539062 358.789062 243.691406 L 353.722656 248.757812 C 353.648438 248.828125 353.550781 248.871094 353.449219 248.871094 L 349.921875 248.871094 C 349.574219 248.871094 349.398438 248.449219 349.644531 248.207031 " fill-opacity="1" fill-rule="nonzero"/></g><g clip-path="url(#ed49a7e502)"><path fill="#f2f9f8" d="M 357.660156 248.207031 L 362.179688 243.691406 C 362.328125 243.539062 362.328125 243.292969 362.179688 243.140625 L 357.660156 238.625 C 357.417969 238.378906 357.589844 237.960938 357.9375 237.960938 L 361.464844 237.960938 C 361.566406 237.960938 361.667969 238 361.738281 238.074219 L 366.804688 243.140625 C 366.957031 243.292969 366.957031 243.539062 366.804688 243.691406 L 361.738281 248.757812 C 361.667969 248.828125 361.566406 248.871094 361.464844 248.871094 L 357.9375 248.871094 C 357.589844 248.871094 357.417969 248.449219 357.660156 248.207031 " fill-opacity="1" fill-rule="nonzero"/></g><g clip-path="url(#5c6a3a188f)"><path fill="#f2f9f8" d="M 365.679688 248.207031 L 370.195312 243.691406 C 370.347656 243.539062 370.347656 243.292969 370.195312 243.140625 L 365.679688 238.625 C 365.433594 238.378906 365.609375 237.960938 365.953125 237.960938 L 369.480469 237.960938 C 369.585938 237.960938 369.683594 238 369.757812 238.074219 L 374.824219 243.140625 C 374.972656 243.292969 374.972656 243.539062 374.824219 243.691406 L 369.757812 248.757812 C 369.683594 248.828125 369.585938 248.871094 369.480469 248.871094 L 365.953125 248.871094 C 365.609375 248.871094 365.433594 248.449219 365.679688 248.207031 " fill-opacity="1" fill-rule="nonzero"/></g><g fill="#ffffff" fill-opacity="1"><g transform="translate(198.638987, 247.918767)"><g><path d="M 8.671875 -9.28125 L 8.34375 -7.734375 L 5.65625 -7.734375 L 4.015625 0 L 2.1875 0 L 3.828125 -7.734375 L 1.15625 -7.734375 L 1.484375 -9.28125 Z M 8.671875 -9.28125 "/></g></g></g><g fill="#ffffff" fill-opacity="1"><g transform="translate(206.330034, 247.918767)"><g><path d="M 8.15625 0 L 6.296875 0 L 6.046875 -2.140625 L 2.515625 -2.140625 L 1.375 0 L -0.609375 0 L 4.546875 -9.28125 L 6.90625 -9.28125 Z M 5.28125 -7.34375 L 3.34375 -3.6875 L 5.859375 -3.6875 L 5.453125 -7.34375 Z M 5.28125 -7.34375 "/></g></g></g><g fill="#ffffff" fill-opacity="1"><g transform="translate(215.372731, 247.918767)"><g><path d="M 0.46875 0 L 2.4375 -9.28125 L 4.265625 -9.28125 L 3.453125 -5.484375 L 3.65625 -5.484375 C 4.5 -6.328125 5.726562 -7.59375 7.34375 -9.28125 L 9.484375 -9.28125 L 9.453125 -9.125 C 8.367188 -7.988281 6.882812 -6.488281 5 -4.625 L 7.859375 -0.15625 L 7.828125 0 L 5.921875 0 L 5.546875 -0.59375 C 4.578125 -2.113281 3.847656 -3.25 3.359375 -4 L 3.15625 -4 L 2.296875 0 Z M 0.46875 0 "/></g></g></g><g fill="#ffffff" fill-opacity="1"><g transform="translate(223.945843, 247.918767)"><g><path d="M 8.59375 -9.28125 L 8.265625 -7.75 L 3.9375 -7.75 L 3.484375 -5.578125 L 7.265625 -5.578125 L 6.9375 -4.078125 L 3.15625 -4.078125 L 2.625 -1.53125 L 7.046875 -1.53125 L 6.734375 0 L 0.46875 0 L 2.4375 -9.28125 Z M 8.59375 -9.28125 "/></g></g></g><g fill="#ffffff" fill-opacity="1"><g transform="translate(231.922455, 247.918767)"><g/></g></g><g fill="#ffffff" fill-opacity="1"><g transform="translate(234.987457, 247.918767)"><g><path d="M 8.15625 0 L 6.296875 0 L 6.046875 -2.140625 L 2.515625 -2.140625 L 1.375 0 L -0.609375 0 L 4.546875 -9.28125 L 6.90625 -9.28125 Z M 5.28125 -7.34375 L 3.34375 -3.6875 L 5.859375 -3.6875 L 5.453125 -7.34375 Z M 5.28125 -7.34375 "/></g></g></g><g fill="#ffffff" fill-opacity="1"><g transform="translate(244.030154, 247.918767)"><g/></g></g><g fill="#ffffff" fill-opacity="1"><g transform="translate(247.095156, 247.918767)"><g><path d="M 4.265625 -9.28125 L 2.625 -1.53125 L 6.796875 -1.53125 L 6.46875 0 L 0.46875 0 L 2.4375 -9.28125 Z M 4.265625 -9.28125 "/></g></g></g><g fill="#ffffff" fill-opacity="1"><g transform="translate(254.608523, 247.918767)"><g><path d="M 8.59375 -9.28125 L 8.265625 -7.75 L 3.9375 -7.75 L 3.484375 -5.578125 L 7.265625 -5.578125 L 6.9375 -4.078125 L 3.15625 -4.078125 L 2.625 -1.53125 L 7.046875 -1.53125 L 6.734375 0 L 0.46875 0 L 2.4375 -9.28125 Z M 8.59375 -9.28125 "/></g></g></g><g fill="#ffffff" fill-opacity="1"><g transform="translate(262.585134, 247.918767)"><g><path d="M 8.15625 0 L 6.296875 0 L 6.046875 -2.140625 L 2.515625 -2.140625 L 1.375 0 L -0.609375 0 L 4.546875 -9.28125 L 6.90625 -9.28125 Z M 5.28125 -7.34375 L 3.34375 -3.6875 L 5.859375 -3.6875 L 5.453125 -7.34375 Z M 5.28125 -7.34375 "/></g></g></g><g fill="#ffffff" fill-opacity="1"><g transform="translate(271.627831, 247.918767)"><g><path d="M 5.828125 -9.28125 C 6.398438 -9.28125 6.890625 -9.1875 7.296875 -9 C 7.710938 -8.8125 8.03125 -8.539062 8.25 -8.1875 C 8.46875 -7.832031 8.578125 -7.414062 8.578125 -6.9375 C 8.578125 -6.6875 8.550781 -6.4375 8.5 -6.1875 C 8.300781 -5.269531 7.90625 -4.582031 7.3125 -4.125 C 6.71875 -3.675781 5.875 -3.453125 4.78125 -3.453125 L 3.03125 -3.453125 L 2.296875 0 L 0.46875 0 L 2.4375 -9.28125 Z M 6.6875 -6.328125 C 6.71875 -6.503906 6.734375 -6.648438 6.734375 -6.765625 C 6.734375 -7.117188 6.617188 -7.382812 6.390625 -7.5625 C 6.171875 -7.738281 5.847656 -7.828125 5.421875 -7.828125 L 3.953125 -7.828125 L 3.34375 -4.90625 L 4.84375 -4.90625 C 5.375 -4.90625 5.785156 -5.023438 6.078125 -5.265625 C 6.378906 -5.503906 6.582031 -5.859375 6.6875 -6.328125 Z M 6.6875 -6.328125 "/></g></g></g><g fill="#ffffff" fill-opacity="1"><g transform="translate(280.105751, 247.918767)"><g/></g></g><g fill="#ffffff" fill-opacity="1"><g transform="translate(283.170754, 247.918767)"><g><path d="M 8.3125 -9.28125 L 7.984375 -7.75 L 3.9375 -7.75 L 3.421875 -5.28125 L 7.09375 -5.28125 L 6.765625 -3.765625 L 3.09375 -3.765625 L 2.296875 0 L 0.46875 0 L 2.4375 -9.28125 Z M 8.3125 -9.28125 "/></g></g></g><g fill="#ffffff" fill-opacity="1"><g transform="translate(290.671428, 247.918767)"><g><path d="M 4.46875 0.140625 C 3.75 0.140625 3.117188 0.0078125 2.578125 -0.25 C 2.035156 -0.519531 1.613281 -0.921875 1.3125 -1.453125 C 1.019531 -1.992188 0.875 -2.65625 0.875 -3.4375 C 0.875 -3.925781 0.929688 -4.453125 1.046875 -5.015625 C 1.253906 -5.972656 1.59375 -6.78125 2.0625 -7.4375 C 2.539062 -8.09375 3.125 -8.582031 3.8125 -8.90625 C 4.5 -9.238281 5.269531 -9.40625 6.125 -9.40625 C 6.851562 -9.40625 7.488281 -9.273438 8.03125 -9.015625 C 8.570312 -8.753906 8.988281 -8.359375 9.28125 -7.828125 C 9.570312 -7.304688 9.71875 -6.65625 9.71875 -5.875 C 9.71875 -5.363281 9.660156 -4.828125 9.546875 -4.265625 C 9.335938 -3.304688 9 -2.5 8.53125 -1.84375 C 8.0625 -1.1875 7.484375 -0.691406 6.796875 -0.359375 C 6.117188 -0.0234375 5.34375 0.140625 4.46875 0.140625 Z M 4.625 -1.453125 C 5.40625 -1.453125 6.054688 -1.710938 6.578125 -2.234375 C 7.109375 -2.753906 7.488281 -3.554688 7.71875 -4.640625 C 7.8125 -5.054688 7.859375 -5.4375 7.859375 -5.78125 C 7.859375 -6.4375 7.695312 -6.941406 7.375 -7.296875 C 7.050781 -7.648438 6.585938 -7.828125 5.984375 -7.828125 C 5.203125 -7.828125 4.546875 -7.566406 4.015625 -7.046875 C 3.484375 -6.523438 3.101562 -5.722656 2.875 -4.640625 C 2.78125 -4.234375 2.734375 -3.859375 2.734375 -3.515625 C 2.734375 -2.847656 2.894531 -2.335938 3.21875 -1.984375 C 3.550781 -1.628906 4.019531 -1.453125 4.625 -1.453125 Z M 4.625 -1.453125 "/></g></g></g><g fill="#ffffff" fill-opacity="1"><g transform="translate(300.780211, 247.918767)"><g><path d="M 0.46875 0 L 2.4375 -9.28125 L 5.96875 -9.28125 C 6.507812 -9.28125 6.972656 -9.195312 7.359375 -9.03125 C 7.753906 -8.863281 8.050781 -8.625 8.25 -8.3125 C 8.457031 -8.007812 8.5625 -7.640625 8.5625 -7.203125 C 8.5625 -6.992188 8.535156 -6.769531 8.484375 -6.53125 C 8.367188 -6.007812 8.117188 -5.566406 7.734375 -5.203125 C 7.347656 -4.847656 6.878906 -4.632812 6.328125 -4.5625 L 6.296875 -4.421875 C 6.566406 -4.296875 6.769531 -4.109375 6.90625 -3.859375 C 7.039062 -3.609375 7.132812 -3.242188 7.1875 -2.765625 L 7.3125 -1.8125 L 7.53125 0 L 5.6875 0 L 5.65625 -0.265625 C 5.625 -0.535156 5.582031 -0.878906 5.53125 -1.296875 C 5.476562 -1.722656 5.425781 -2.21875 5.375 -2.78125 C 5.332031 -3.050781 5.269531 -3.265625 5.1875 -3.421875 C 5.101562 -3.578125 4.976562 -3.6875 4.8125 -3.75 C 4.65625 -3.820312 4.429688 -3.859375 4.140625 -3.859375 L 3.109375 -3.859375 L 2.296875 0 Z M 5.09375 -5.3125 C 5.5625 -5.3125 5.921875 -5.410156 6.171875 -5.609375 C 6.429688 -5.816406 6.601562 -6.117188 6.6875 -6.515625 C 6.71875 -6.640625 6.734375 -6.765625 6.734375 -6.890625 C 6.734375 -7.203125 6.632812 -7.4375 6.4375 -7.59375 C 6.238281 -7.75 5.957031 -7.828125 5.59375 -7.828125 L 3.96875 -7.828125 L 3.421875 -5.3125 Z M 5.09375 -5.3125 "/></g></g></g><g fill="#ffffff" fill-opacity="1"><g transform="translate(309.454855, 247.918767)"><g><path d="M 3.71875 0 L 1.640625 0 L 1.484375 -9.28125 L 3.265625 -9.28125 L 3.28125 -2.75 L 3.4375 -2.75 L 6.484375 -9.28125 L 8.0625 -9.28125 L 8.40625 -2.75 L 8.5625 -2.75 L 11.328125 -9.28125 L 13.125 -9.28125 L 9.0625 0 L 7.015625 0 L 6.671875 -5.984375 L 6.53125 -5.984375 Z M 3.71875 0 "/></g></g></g><g fill="#ffffff" fill-opacity="1"><g transform="translate(321.600618, 247.918767)"><g><path d="M 8.15625 0 L 6.296875 0 L 6.046875 -2.140625 L 2.515625 -2.140625 L 1.375 0 L -0.609375 0 L 4.546875 -9.28125 L 6.90625 -9.28125 Z M 5.28125 -7.34375 L 3.34375 -3.6875 L 5.859375 -3.6875 L 5.453125 -7.34375 Z M 5.28125 -7.34375 "/></g></g></g><g fill="#ffffff" fill-opacity="1"><g transform="translate(330.643315, 247.918767)"><g><path d="M 0.46875 0 L 2.4375 -9.28125 L 5.96875 -9.28125 C 6.507812 -9.28125 6.972656 -9.195312 7.359375 -9.03125 C 7.753906 -8.863281 8.050781 -8.625 8.25 -8.3125 C 8.457031 -8.007812 8.5625 -7.640625 8.5625 -7.203125 C 8.5625 -6.992188 8.535156 -6.769531 8.484375 -6.53125 C 8.367188 -6.007812 8.117188 -5.566406 7.734375 -5.203125 C 7.347656 -4.847656 6.878906 -4.632812 6.328125 -4.5625 L 6.296875 -4.421875 C 6.566406 -4.296875 6.769531 -4.109375 6.90625 -3.859375 C 7.039062 -3.609375 7.132812 -3.242188 7.1875 -2.765625 L 7.3125 -1.8125 L 7.53125 0 L 5.6875 0 L 5.65625 -0.265625 C 5.625 -0.535156 5.582031 -0.878906 5.53125 -1.296875 C 5.476562 -1.722656 5.425781 -2.21875 5.375 -2.78125 C 5.332031 -3.050781 5.269531 -3.265625 5.1875 -3.421875 C 5.101562 -3.578125 4.976562 -3.6875 4.8125 -3.75 C 4.65625 -3.820312 4.429688 -3.859375 4.140625 -3.859375 L 3.109375 -3.859375 L 2.296875 0 Z M 5.09375 -5.3125 C 5.5625 -5.3125 5.921875 -5.410156 6.171875 -5.609375 C 6.429688 -5.816406 6.601562 -6.117188 6.6875 -6.515625 C 6.71875 -6.640625 6.734375 -6.765625 6.734375 -6.890625 C 6.734375 -7.203125 6.632812 -7.4375 6.4375 -7.59375 C 6.238281 -7.75 5.957031 -7.828125 5.59375 -7.828125 L 3.96875 -7.828125 L 3.421875 -5.3125 Z M 5.09375 -5.3125 "/></g></g></g><g fill="#ffffff" fill-opacity="1"><g transform="translate(339.317959, 247.918767)"><g><path d="M 5.6875 -9.28125 C 6.507812 -9.28125 7.207031 -9.132812 7.78125 -8.84375 C 8.351562 -8.5625 8.785156 -8.15625 9.078125 -7.625 C 9.367188 -7.09375 9.515625 -6.457031 9.515625 -5.71875 C 9.515625 -5.3125 9.460938 -4.847656 9.359375 -4.328125 C 9.054688 -2.910156 8.453125 -1.832031 7.546875 -1.09375 C 6.640625 -0.363281 5.390625 0 3.796875 0 L 0.46875 0 L 2.4375 -9.28125 Z M 7.53125 -4.640625 C 7.613281 -5.015625 7.65625 -5.359375 7.65625 -5.671875 C 7.65625 -6.359375 7.457031 -6.875 7.0625 -7.21875 C 6.664062 -7.5625 6.09375 -7.734375 5.34375 -7.734375 L 3.9375 -7.734375 L 2.625 -1.546875 L 4.015625 -1.546875 C 4.953125 -1.546875 5.710938 -1.789062 6.296875 -2.28125 C 6.890625 -2.769531 7.300781 -3.554688 7.53125 -4.640625 Z M 7.53125 -4.640625 "/></g></g></g></svg>